<svg width="356" height="356" viewBox="0 0 356 356" fill="none" xmlns="http://www.w3.org/2000/svg">
<path d="M178.093 116.645C129.299 67.954 157.793 22.9539 178.053 6C198.314 22.9539 226.888 67.954 178.093 116.645ZM178.093 116.645C191.693 128.025 208.899 152.972 203.985 182.872C199.132 212.396 156.466 212.373 151.791 182.82C147.065 152.944 164.502 128.019 178.093 116.645ZM221.782 134.632C221.782 65.7845 273.699 54.0728 299.978 56.3797C302.285 82.6588 290.629 134.632 221.782 134.632ZM221.782 134.632C223.331 152.271 217.832 182.047 193.227 199.718C168.931 217.168 138.847 187.051 156.442 162.86C174.23 138.404 204.153 133.084 221.782 134.632ZM133.428 134.5C64.5808 134.5 52.8691 82.5833 55.1761 56.3043C81.4551 53.9973 133.428 65.6527 133.428 134.5ZM133.428 134.5C151.068 132.951 180.843 138.45 198.514 163.055C215.964 187.351 185.848 217.435 161.656 199.84C137.2 182.052 131.88 152.129 133.428 134.5ZM133.296 221.651C133.296 290.498 81.3797 302.209 55.1007 299.902C52.7937 273.623 64.4491 221.651 133.296 221.651ZM133.296 221.651C131.748 204.011 137.246 174.235 161.851 156.564C186.147 139.114 216.232 169.231 198.636 193.422C180.849 217.878 150.926 223.198 133.296 221.651ZM221.651 221.782C290.498 221.782 302.209 273.699 299.902 299.978C273.623 302.285 221.651 290.629 221.651 221.782ZM221.651 221.782C204.011 223.331 174.235 217.832 156.564 193.227C139.114 168.931 169.231 138.847 193.422 156.442C217.878 174.23 223.198 204.153 221.651 221.782ZM239.355 178.093C288.046 129.299 333.046 157.793 350 178.053C333.046 198.314 288.046 226.888 239.355 178.093ZM239.355 178.093C227.975 191.693 203.028 208.899 173.128 203.985C143.604 199.132 143.627 156.466 173.18 151.791C203.056 147.065 227.981 164.502 239.355 178.093ZM116.645 177.907C67.954 226.701 22.9539 198.207 6 177.947C22.9539 157.686 67.954 129.112 116.645 177.907ZM116.645 177.907C128.025 164.307 152.972 147.101 182.872 152.015C212.396 156.868 212.373 199.534 182.82 204.209C152.944 208.935 128.019 191.498 116.645 177.907ZM178.093 239.355C129.299 288.046 157.793 333.046 178.053 350C198.314 333.046 226.888 288.046 178.093 239.355ZM178.093 239.355C191.693 227.975 208.899 203.028 203.985 173.128C199.132 143.604 156.466 143.627 151.791 173.18C147.065 203.056 164.502 227.981 178.093 239.355Z" stroke="black" stroke-width="8"/>
</svg>
